<svg
 xmlns="http://www.w3.org/2000/svg"
 xmlns:xlink="http://www.w3.org/1999/xlink"
 width="170px" height="42px">
<path fill-rule="evenodd"  fill="rgb(0, 0, 0)"
 d="M152.120,17.664 L135.344,28.895 L118.570,17.664 L101.797,28.895 L85.023,17.664 L68.245,28.895 L51.461,17.664 L34.680,28.895 L17.890,17.664 L2.209,28.153 L-0.008,25.078 L17.890,13.104 L34.680,24.335 L51.461,13.104 L68.245,24.335 L85.023,13.104 L101.797,24.335 L118.570,13.104 L135.344,24.335 L152.120,13.104 L170.008,25.078 L167.789,28.153 L152.120,17.664 ZM152.120,4.560 L135.344,15.792 L118.570,4.560 L101.797,15.792 L85.023,4.560 L68.245,15.792 L51.461,4.560 L34.680,15.792 L17.890,4.560 L2.209,15.049 L-0.008,11.975 L17.890,0.001 L34.680,11.232 L51.461,0.001 L68.245,11.232 L85.023,0.001 L101.797,11.232 L118.570,0.001 L135.344,11.232 L152.120,0.001 L170.008,11.975 L167.789,15.049 L152.120,4.560 ZM34.680,37.438 L51.461,26.208 L68.245,37.438 L85.023,26.208 L101.797,37.438 L118.570,26.208 L135.344,37.438 L152.120,26.208 L170.008,38.181 L167.789,41.255 L152.120,30.767 L135.344,41.998 L118.570,30.767 L101.797,41.998 L85.023,30.767 L68.245,41.998 L51.461,30.767 L34.680,41.998 L17.890,30.767 L2.209,41.255 L-0.008,38.181 L17.890,26.208 L34.680,37.438 Z"/>
</svg>


