<svg
 xmlns="http://www.w3.org/2000/svg"
 xmlns:xlink="http://www.w3.org/1999/xlink"
 width="170px" height="44px">
<path fill-rule="evenodd"  fill="rgb(0, 0, 0)"
 d="M84.639,35.967 C63.836,32.050 42.322,28.000 0.009,28.000 L0.009,24.000 C42.684,24.000 64.378,28.083 85.358,32.033 C106.162,35.949 127.676,40.000 169.991,40.000 L169.991,43.999 C127.314,43.999 105.620,39.916 84.639,35.967 ZM0.009,15.999 L0.009,11.999 C42.684,11.999 64.378,16.084 85.358,20.033 C106.162,23.949 127.676,28.000 169.991,28.000 L169.991,31.999 C127.314,31.999 105.620,27.915 84.639,23.966 C63.836,20.051 42.322,15.999 0.009,15.999 ZM0.009,3.999 L0.009,-0.000 C42.684,-0.000 64.378,4.083 85.358,8.032 C106.162,11.949 127.676,15.999 169.991,15.999 L169.991,20.000 C127.314,20.000 105.620,15.915 84.639,11.966 C63.836,8.050 42.322,3.999 0.009,3.999 Z"/>
</svg>
