<svg
 xmlns="http://www.w3.org/2000/svg"
 xmlns:xlink="http://www.w3.org/1999/xlink"
 width="171px" height="55px">
<path fill-rule="evenodd"  fill="rgb(34, 34, 34)"
 d="M161.187,47.728 L159.168,49.752 C152.217,56.720 140.911,56.720 133.960,49.752 L131.941,47.728 C129.334,45.116 125.853,43.678 122.137,43.678 C118.422,43.678 114.941,45.116 112.336,47.728 L110.315,49.752 C106.961,53.114 102.486,54.965 97.712,54.965 C92.939,54.965 88.464,53.114 85.110,49.752 L83.089,47.728 C80.484,45.116 77.003,43.678 73.288,43.678 C69.572,43.678 66.091,45.116 63.485,47.728 L61.463,49.752 C54.516,56.720 43.208,56.720 36.257,49.752 L34.237,47.728 C28.832,42.311 20.038,42.311 14.632,47.728 L12.612,49.752 C9.138,53.236 4.573,54.979 0.009,54.979 L0.009,51.009 C3.559,51.009 7.109,49.653 9.812,46.945 L11.832,44.920 C18.782,37.951 30.088,37.955 37.038,44.920 L39.058,46.945 C44.464,52.361 53.258,52.361 58.663,46.945 L60.685,44.920 C64.038,41.559 68.514,39.707 73.288,39.707 C78.061,39.707 82.536,41.559 85.890,44.920 L87.911,46.945 C90.516,49.556 93.997,50.995 97.712,50.995 C101.428,50.995 104.909,49.556 107.514,46.945 L109.535,44.920 C112.889,41.559 117.364,39.707 122.137,39.707 C126.910,39.707 131.388,41.559 134.741,44.920 L136.761,46.945 C142.168,52.361 150.960,52.361 156.368,46.945 L158.387,44.920 C161.741,41.559 166.218,39.707 170.991,39.707 L170.991,43.678 C167.276,43.678 163.794,45.116 161.187,47.728 ZM161.187,27.875 L159.168,29.899 C152.217,36.867 140.911,36.867 133.960,29.899 L131.941,27.875 C129.334,25.263 125.853,23.824 122.137,23.824 C118.422,23.824 114.941,25.263 112.336,27.875 L110.315,29.899 C106.961,33.261 102.486,35.112 97.712,35.112 C92.939,35.112 88.464,33.261 85.110,29.899 L83.089,27.875 C80.484,25.263 77.003,23.824 73.288,23.824 C69.572,23.824 66.091,25.263 63.485,27.875 L61.463,29.899 C54.516,36.867 43.208,36.867 36.257,29.899 L34.237,27.875 C28.832,22.458 20.038,22.458 14.632,27.875 L12.612,29.899 C9.138,33.383 4.573,35.126 0.009,35.126 L0.009,31.156 C3.559,31.156 7.109,29.800 9.812,27.091 L11.832,25.067 C18.782,18.097 30.088,18.102 37.038,25.067 L39.058,27.091 C44.464,32.508 53.258,32.508 58.663,27.091 L60.685,25.067 C64.038,21.705 68.514,19.854 73.288,19.854 C78.061,19.854 82.536,21.705 85.890,25.067 L87.911,27.091 C90.516,29.703 93.997,31.141 97.712,31.141 C101.428,31.141 104.909,29.703 107.514,27.091 L109.535,25.067 C112.889,21.705 117.364,19.854 122.137,19.854 C126.910,19.854 131.388,21.705 134.741,25.067 L136.761,27.091 C142.168,32.508 150.960,32.508 156.368,27.091 L158.387,25.067 C161.741,21.705 166.218,19.854 170.991,19.854 L170.991,23.824 C167.276,23.824 163.794,25.263 161.187,27.875 ZM161.187,8.021 L159.168,10.046 C152.217,17.014 140.911,17.014 133.960,10.046 L131.941,8.021 C129.334,5.410 125.853,3.971 122.137,3.971 C118.422,3.971 114.941,5.410 112.336,8.021 L110.315,10.046 C106.961,13.408 102.486,15.259 97.712,15.259 C92.939,15.259 88.464,13.408 85.110,10.046 L83.089,8.021 C80.484,5.410 77.003,3.971 73.288,3.971 C69.572,3.971 66.091,5.410 63.485,8.021 L61.463,10.046 C54.516,17.014 43.208,17.014 36.257,10.046 L34.237,8.021 C28.832,2.605 20.038,2.605 14.632,8.021 L12.612,10.046 C9.138,13.530 4.573,15.273 0.009,15.273 L0.009,11.302 C3.559,11.302 7.109,9.947 9.812,7.238 L11.832,5.214 C18.782,-1.756 30.088,-1.752 37.038,5.214 L39.058,7.238 C44.464,12.655 53.258,12.655 58.663,7.238 L60.685,5.214 C64.038,1.852 68.514,0.001 73.288,0.001 C78.061,0.001 82.536,1.852 85.890,5.214 L87.911,7.238 C90.516,9.850 93.997,11.288 97.712,11.288 C101.428,11.288 104.909,9.850 107.514,7.238 L109.535,5.214 C112.889,1.852 117.364,0.001 122.137,0.001 C126.910,0.001 131.388,1.852 134.741,5.214 L136.761,7.238 C142.168,12.655 150.960,12.655 156.368,7.238 L158.387,5.214 C161.741,1.852 166.218,0.001 170.991,0.001 L170.991,3.971 C167.276,3.971 163.794,5.410 161.187,8.021 Z"/>
</svg>
